<svg class="icon icon-spotify" viewBox="0 0 24 24"><path fill="currentColor" d="M12 1.75A10.25 10.25 0 1 0 22.25 12 10.25 10.25 0 0 0 12 1.75zm4.74 14.45a.8.8 0 0 1-1.1.26 9.58 9.58 0 0 0-8.24-.79.8.8 0 0 1-.59-1.48 11.17 11.17 0 0 1 9.6.92.8.8 0 0 1 .33 1.1zm.63-2.52a.94.94 0 0 1-1.29.31 11.69 11.69 0 0 0-10.07-.96.94.94 0 1 1-.64-1.78 13.58 13.58 0 0 1 11.71 1.11.94.94 0 0 1 .29 1.32zm.07-2.6c-3-1.78-7.94-1.95-10.8-1.06a1.09 1.09 0 1 1-.64-2.09c3.39-1.04 8.93-.83 12.43 1.23a1.09 1.09 0 1 1-1 1.92z"/></svg>