<svg width="120" height="60" viewBox="0 0 120 60" xmlns="http://www.w3.org/2000/svg" role="img" aria-labelledby="title">
  <title>Visa</title>
  <rect width="120" height="60" rx="8" fill="#1A1F71"/>
  <path d="M36.7 40.6L40.5 19.3H47.7L44 40.6H36.7ZM63.1 19.3C61.3 19.3 59.6 20.3 58.8 21.9L49.9 40.6H57.9L59.4 36.8H68.5L69.5 40.6H77.1L71.3 19.3H63.1ZM65.7 25.4L67.9 33.9H61.9L65.7 25.4ZM87.8 26.1C87.2 25.8 86.5 25.5 85.7 25.5C84.2 25.5 82.8 26.2 82.1 27.6L77.7 40.6H85.3L87.2 34.5L89.1 40.6H96.6L92.2 28.8C91.4 26.6 89.7 25.5 87.8 26.1ZM33.7 19.3L26 40.6H33.6L41.3 19.3H33.7Z" fill="#FFFFFF"/>
</svg>
