<svg width="120" height="60" viewBox="0 0 120 60" xmlns="http://www.w3.org/2000/svg" role="img" aria-labelledby="title">
  <title>Apple Pay</title>
  <rect width="120" height="60" rx="8" fill="#FFFFFF" stroke="#000000" stroke-width="2"/>
  <g fill="#000000">
    <path d="M36.9 27.5c-.1-1.6.9-3.2 2.2-4.2-1.3-1.9-3.3-2.2-4-2.2-1.7-.2-3.3 1-4.1 1-.8 0-2.1-1-3.4-1-1.8.1-3.5 1.1-4.4 2.8-1.9 3.3-.5 8.1 1.3 10.7.9 1.3 1.9 2.7 3.3 2.6 1.3-.1 1.8-.9 3.4-.9 1.6 0 2 .9 3.4.9 1.4-.1 2.3-1.3 3.2-2.6.6-.9.9-1.8 1-1.9-.1-.1-3.8-1.5-3.9-5.1z"/>
    <path d="M50.8 21.5c-3.5 0-6 2.3-6 5.6 0 3.4 2.6 5.5 6.5 5.5h.1c.4 0 .9-.1 1.3-.1a4.9 4.9 0 0 0 2.8-1.6v1.3c0 2.4-1.3 3.8-3.4 3.8-1.6 0-2.6-1-3.1-2l-3.2 1.3c.7 1.9 2.7 4.3 6.3 4.3 3.7 0 6.3-2.3 6.3-7.3V22h-3.5v1.5h-.1c-.9-1.2-2.2-2-4-2zm.6 3c2.1 0 3.4 1.3 3.4 3.4 0 2-.1 3.5-3.4 3.5-2.1 0-3.8-1.3-3.8-3.4 0-2.2 1.7-3.5 3.8-3.5zM71.4 22l-4.1 13.9H71l.8-2.9h4.8l.8 2.9h3.7L77 22h-5.6zm.9 3.5h.1l1.8 6.3H70l2.3-6.3zM90 21.8c-2.3 0-4.1 1-5.2 2.9h-.1V22h-3.4v19.6H85v-6.3h.1c.7 1.1 2.3 2.2 4.4 2.2 3.6 0 7-2.9 7-7.5.1-4.6-3.3-7.4-6.5-7.4zm-1.1 11.7c-2.1 0-3.9-1.8-3.9-4.4 0-2.8 1.8-4.5 3.9-4.5 2.1 0 3.8 1.8 3.8 4.5 0 2.6-1.7 4.4-3.8 4.4z"/>
  </g>
</svg>
